<?xml version="1.0" encoding="iso-8859-1"?>
<!-- Generator: Adobe Illustrator 19.0.0, SVG Export Plug-In . SVG Version: 6.00 Build 0)  -->
<svg version="1.1" id="Capa_1" xmlns="http://www.w3.org/2000/svg" xmlns:xlink="http://www.w3.org/1999/xlink" x="0px" y="0px"
	 viewBox="0 0 512 512" style="enable-background:new 0 0 512 512;" xml:space="preserve">
<ellipse transform="matrix(0.7718 -0.6359 0.6359 0.7718 -12.7785 263.5725)" style="fill:#F5B97D;" cx="360.81" cy="149.589" rx="25.878" ry="23.887"/>
<path style="fill:#E3AA75;" d="M362.89,161.523c-8.388-10.181-6.248-25.802,4.782-34.89c0.442-0.365,0.933-0.611,1.389-0.943
	c-7.672-2.022-16.485-0.273-23.434,5.452c-11.03,9.088-13.171,24.708-4.782,34.89c8.053,9.774,22.839,10.88,33.771,2.923
	C370.111,167.767,365.994,165.29,362.89,161.523z"/>
<ellipse transform="matrix(0.5727 -0.8197 0.8197 0.5727 45.4017 321.1212)" style="fill:#F5B97D;" cx="330.747" cy="117.008" rx="28.387" ry="26.199"/>
<path style="fill:#E3AA75;" d="M336.043,142.295c-11.864-8.289-14.202-25.428-5.223-38.28c3.805-5.446,9.057-9.133,14.72-11.076
	c-11.757-7.052-27.639-3.271-36.263,9.072c-8.979,12.853-6.641,29.991,5.223,38.28c6.837,4.777,15.319,5.457,23.021,2.813
	C337.035,142.813,336.513,142.623,336.043,142.295z"/>
<g>
	<path style="fill:#F5B97D;" d="M344.702,241.232c-0.463-6.889-2.307-14.053-5.327-21.23c-3.647-8.667-9.087-16.516-15.289-23.686
		l-4.348-5.027c-10.528-12.17-22.741-23.035-36.918-30.983c-14.743-8.266-31.138-14.015-48.054-15.806
		c-65.568-6.943-96.58,36.897-80.141,88.753c18.322,57.796,26.591,128.38,0,191.468C136.13,468.6,173.119,504.5,203.942,504.5
		C302.577,504.5,347.784,287.104,344.702,241.232z"/>
	
		<ellipse transform="matrix(0.5 -0.866 0.866 0.5 65.8257 296.4308)" style="fill:#F5B97D;" cx="289.633" cy="91.208" rx="31.341" ry="28.93"/>
</g>
<g>
	<path style="fill:#E3AA75;" d="M207.04,404.114c9.783-74.637-19.784-147.601-56.322-204.162
		c-0.968,10.383,0.202,21.615,3.907,33.302c18.322,57.796,26.591,128.38,0,191.468C136.13,468.6,173.119,504.5,203.942,504.5
		c21.998,0,41.321-10.858,58.061-28.17C232.56,471.892,201.591,445.692,207.04,404.114z"/>
	<path style="fill:#E3AA75;" d="M298.016,114.345c-13.838-7.989-18.039-26.618-9.384-41.609c2.735-4.737,6.486-8.418,10.693-11.158
		c-12.737-3.688-27.287,2.255-34.741,15.166c-8.655,14.991-4.454,33.62,9.384,41.609c9.465,5.465,20.926,4.411,30.033-1.519
		C301.949,116.24,299.936,115.453,298.016,114.345z"/>
</g>
<ellipse transform="matrix(0.416 -0.9094 0.9094 0.416 73.1499 262.022)" style="fill:#F5B97D;" cx="240.582" cy="74.057" rx="36.955" ry="34.108"/>
<path style="fill:#E3AA75;" d="M247.261,98.16c-17.133-7.838-24.138-29.239-15.646-47.799c2.273-4.967,5.467-9.16,9.193-12.586
	C228,38.522,215.641,46.61,209.57,59.88c-8.492,18.56-1.486,39.961,15.646,47.799c12.548,5.741,27.006,2.548,37.204-6.829
	C257.313,101.148,252.145,100.394,247.261,98.16z"/>
<ellipse style="fill:#F5B97D;" cx="173.72" cy="59.6" rx="48.1" ry="52.1"/>
<path style="fill:#E3AA75;" d="M188.244,89.665c-26.563,0-48.097-23.328-48.097-52.105c0-6.436,1.128-12.572,3.098-18.263
	c-10.758,9.556-17.627,24.06-17.627,40.307c0,28.777,21.534,52.105,48.097,52.105c20.623,0,38.162-14.087,44.999-33.842
	C210.418,85.236,199.81,89.665,188.244,89.665z"/>
<path d="M388.202,130.348c-5.375-7.399-13.869-11.751-23.001-12.312c0.741-9.069-2.048-17.677-7.912-24.306
	c-7.628-8.622-19.402-12.305-30.878-10.278c-1.229-9.542-5.956-17.868-13.42-23.543c-9.76-7.42-22.764-8.936-34.423-4.527
	c-3.642-9.211-10.423-16.814-19.264-21.128c-11.135-5.433-23.925-5.15-35.124,0.381C215.351,14.21,196.057,0,173.715,0
	c-30.656,0-55.597,26.739-55.597,59.605s24.94,59.605,55.597,59.605c13.929,0,26.667-5.532,36.433-14.639
	c3.148,3.288,6.843,6.004,10.943,8.005c5.346,2.608,11.109,3.866,16.889,3.866c6.707,0,13.432-1.698,19.546-4.943
	c2.25,3.808,5.195,7.147,8.753,9.852c6.074,4.618,13.354,7.027,20.988,7.027c2.153,0,4.335-0.192,6.526-0.58
	c0.952-0.169,1.89-0.383,2.822-0.621c1.2,5.137,3.621,9.888,7.164,13.892c6.014,6.798,14.486,10.651,23.855,10.849
	c0.252,0.005,0.502,0.008,0.753,0.008c0.157,0,0.313-0.009,0.469-0.011c0.031,6.243,1.95,12.279,5.683,17.417
	c4.964,6.833,12.464,11.157,21.119,12.176c1.289,0.152,2.58,0.227,3.869,0.227c7.138,0,14.183-2.306,20.176-6.66
	c7.077-5.14,11.889-12.555,13.551-20.879C394.959,145.65,393.166,137.181,388.202,130.348z M173.715,104.21
	c-22.385,0-40.597-20.01-40.597-44.605S151.33,15,173.715,15s40.597,20.01,40.597,44.605S196.1,104.21,173.715,104.21z
	 M291.175,113.028c-5.787,1.024-11.402-0.26-15.819-3.618c-2.512-1.91-4.492-4.393-5.834-7.276c0.234-0.257,0.474-0.505,0.703-0.769
	c2.713-3.13,2.375-7.866-0.754-10.58c-3.129-2.714-7.866-2.376-10.58,0.754c-8.174,9.429-21.013,12.537-31.223,7.555
	c-3.024-1.475-5.692-3.596-7.852-6.208c5.993-9.51,9.495-20.966,9.495-33.282c0-3.492-0.298-6.909-0.838-10.238
	c7.625-4.679,16.626-5.352,24.253-1.631c8.085,3.945,13.237,12.104,13.78,21.824c0.223,3.993,3.531,7.082,7.481,7.082
	c0.141,0,0.283-0.004,0.425-0.012c3.511-0.196,6.315-2.781,6.942-6.087c7.518-3.882,16.281-3.464,22.556,1.307
	c4.417,3.358,7.157,8.427,7.717,14.275c0.581,6.073-1.237,12.229-5.119,17.335C302.628,108.566,297.183,111.964,291.175,113.028z
	 M327.95,136.921c-5.136-0.109-9.73-2.165-12.938-5.791c-2.63-2.973-4.089-6.769-4.242-10.863c2.849-2.189,5.438-4.778,7.681-7.729
	c3.078-4.048,5.336-8.537,6.711-13.24c7.58-2.896,15.943-1.225,20.892,4.37c3.208,3.626,4.689,8.437,4.17,13.548
	c-0.542,5.336-3.169,10.336-7.399,14.078C338.595,135.037,333.335,137.042,327.95,136.921z M378.543,151.258
	c-0.921,4.615-3.641,8.763-7.658,11.681c-4.016,2.918-8.805,4.221-13.476,3.672c-4.449-0.524-8.262-2.688-10.736-6.094
	c-2.529-3.481-3.372-7.865-2.433-12.282c3.04-1.483,5.91-3.393,8.523-5.705c3.098-2.741,5.683-5.906,7.687-9.364
	c6.164-0.94,12.207,1.306,15.615,5.998C378.541,142.571,379.421,146.866,378.543,151.258z"/>
<path d="M335.693,198.445c-2.241-3.485-6.881-4.494-10.364-2.254c-3.485,2.24-4.494,6.88-2.254,10.364
	c7.489,11.653,11.811,23.376,12.497,33.901c2.157,33.074-23.046,171.335-78.545,230.572C240.879,488.262,223.638,497,205.779,497
	c-13.352,0-28.247-8.823-37.063-21.956c-9.486-14.129-10.939-31.128-4.092-47.865c28.763-70.309,16-146.172,0.227-197.433
	c-7.187-23.358-4.284-45.258,7.965-60.084c12.813-15.51,34.905-22.411,62.21-19.434c23.896,2.607,48.982,14.797,68.825,33.445
	c3.02,2.837,7.765,2.689,10.602-0.329c2.837-3.018,2.689-7.765-0.329-10.601c-22.494-21.138-50.007-34.43-77.471-37.426
	c-32.489-3.543-59.266,5.26-75.402,24.792c-15.522,18.789-19.436,45.779-10.737,74.049c15.053,48.922,27.311,121.136,0.227,187.342
	c-8.8,21.51-6.839,43.495,5.521,61.906C167.924,500.776,187.361,512,205.779,512c22.172,0,43.097-10.334,62.193-30.717
	c59.331-63.326,84.899-206.039,82.567-241.803C349.688,226.422,344.554,212.233,335.693,198.445z"/>
<g>
</g>
<g>
</g>
<g>
</g>
<g>
</g>
<g>
</g>
<g>
</g>
<g>
</g>
<g>
</g>
<g>
</g>
<g>
</g>
<g>
</g>
<g>
</g>
<g>
</g>
<g>
</g>
<g>
</g>
</svg>
